<svg version="1.1" xmlns="http://www.w3.org/2000/svg" xmlns:xlink="http://www.w3.org/1999/xlink" width="160.6" height="48.8" viewBox="0,0,160.6,48.8"><defs><linearGradient x1="84.211" y1="306.92176" x2="84.211" y2="355.72176" gradientUnits="userSpaceOnUse" id="color-1"><stop offset="0" stop-color="#676767" stop-opacity="0"/><stop offset="1" stop-color="#676767"/></linearGradient></defs><g transform="translate(-3.911,-306.92176)"><g data-paper-data="{&quot;isPaintingLayer&quot;:true}" fill-rule="nonzero" stroke-linejoin="miter" stroke-miterlimit="10" stroke-dasharray="" stroke-dashoffset="0" style="mix-blend-mode: normal"><path d="M3.911,355.72176v-48.8h160.6v48.8z" fill="url(#color-1)" stroke="none" stroke-width="none" stroke-linecap="butt"/><path d="M6.19099,344.57866c0,-3.82216 3.09847,-6.92063 6.92063,-6.92063c3.82216,0 6.92064,3.09847 6.92064,6.92063c0,3.82216 -3.09847,6.92064 -6.92064,6.92064c-3.82216,0 -6.92063,-3.09847 -6.92063,-6.92064z" fill="#ffffff" stroke="none" stroke-width="0" stroke-linecap="butt"/><path d="M28.18873,346.55599c0,-3.95867 3.20913,-7.1678 7.1678,-7.1678c3.95867,0 7.1678,3.20913 7.1678,7.1678c0,3.95867 -3.20913,7.1678 -7.1678,7.1678c-3.95867,0 -7.1678,-3.20913 -7.1678,-7.1678z" fill="#ffffff" stroke="none" stroke-width="0" stroke-linecap="butt"/><path d="M40.05267,346.55599v-31.88435l-22.2449,-2.22449v31.63719" fill="none" stroke="#ffffff" stroke-width="5" stroke-linecap="round"/><text transform="translate(45.711,331.92176) scale(0.5,0.5)" font-size="40" xml:space="preserve" fill="#ffffff" fill-rule="nonzero" stroke="none" stroke-width="1" stroke-linecap="butt" stroke-linejoin="miter" stroke-miterlimit="10" stroke-dasharray="" stroke-dashoffset="0" font-family="Sans Serif" font-weight="normal" text-anchor="start" style="mix-blend-mode: normal"><tspan x="0" dy="0">Title</tspan></text><text transform="translate(46.711,349.53616) scale(0.28662,0.28662)" font-size="40" xml:space="preserve" fill="#ffffff" fill-rule="nonzero" stroke="none" stroke-width="1" stroke-linecap="butt" stroke-linejoin="miter" stroke-miterlimit="10" stroke-dasharray="" stroke-dashoffset="0" font-family="Sans Serif" font-weight="normal" text-anchor="start" style="mix-blend-mode: normal"><tspan x="0" dy="0">Artist</tspan></text></g></g></svg>